<svg width="23" height="23" viewBox="0 0 23 23" fill="none" xmlns="http://www.w3.org/2000/svg">
<path d="M0 0H18C20.7614 0 23 2.23858 23 5V23H5C2.23858 23 0 20.7614 0 18V0Z" fill="#9E00FF"/>
<path d="M3.78 7.744H6.564V11.116H7.428L9.024 7.744H11.796V8.284L9.9 11.836L12.072 15.46V16H9.156L7.38 12.724H6.564V16H3.78V7.744ZM16.538 16.192C15.73 16.192 15.002 16 14.354 15.616C13.706 15.224 13.198 14.692 12.83 14.02C12.462 13.348 12.278 12.608 12.278 11.8C12.278 11.024 12.462 10.312 12.83 9.664C13.206 9.016 13.726 8.504 14.39 8.128C15.054 7.752 15.81 7.564 16.658 7.564C17.122 7.564 17.57 7.616 18.002 7.72C18.442 7.824 18.838 7.972 19.19 8.164L18.398 10.024C17.854 9.8 17.346 9.688 16.874 9.688C16.258 9.688 15.782 9.888 15.446 10.288C15.11 10.68 14.942 11.196 14.942 11.836C14.942 12.252 15.018 12.628 15.17 12.964C15.322 13.292 15.534 13.552 15.806 13.744C16.086 13.936 16.402 14.032 16.754 14.032C16.946 14.032 17.106 14.016 17.234 13.984V12.052L19.31 11.812V15.568C18.406 15.984 17.482 16.192 16.538 16.192Z" fill="white"/>
</svg>
