<svg width="114" height="45" viewBox="0 0 114 45" fill="none" xmlns="http://www.w3.org/2000/svg">
<path d="M0 13H18C20.7614 13 23 15.2386 23 18V36H5C2.23858 36 0 33.7614 0 31V13Z" fill="#8300D3"/>
<path d="M3.78 20.744H6.564V24.116H7.428L9.024 20.744H11.796V21.284L9.9 24.836L12.072 28.46V29H9.156L7.38 25.724H6.564V29H3.78V20.744ZM16.538 29.192C15.73 29.192 15.002 29 14.354 28.616C13.706 28.224 13.198 27.692 12.83 27.02C12.462 26.348 12.278 25.608 12.278 24.8C12.278 24.024 12.462 23.312 12.83 22.664C13.206 22.016 13.726 21.504 14.39 21.128C15.054 20.752 15.81 20.564 16.658 20.564C17.122 20.564 17.57 20.616 18.002 20.72C18.442 20.824 18.838 20.972 19.19 21.164L18.398 23.024C17.854 22.8 17.346 22.688 16.874 22.688C16.258 22.688 15.782 22.888 15.446 23.288C15.11 23.68 14.942 24.196 14.942 24.836C14.942 25.252 15.018 25.628 15.17 25.964C15.322 26.292 15.534 26.552 15.806 26.744C16.086 26.936 16.402 27.032 16.754 27.032C16.946 27.032 17.106 27.016 17.234 26.984V25.052L19.31 24.812V28.568C18.406 28.984 17.482 29.192 16.538 29.192Z" fill="white"/>
<path d="M26.08 13.984H41.248V18.848H32.96V23.296H40.64V27.328H32.96V36H26.08V13.984ZM49.482 36.256C47.69 36.256 46.2927 35.68 45.29 34.528C44.2873 33.376 43.786 31.808 43.786 29.824V19.968H50.57V29.536C50.57 30.0267 50.698 30.4107 50.954 30.688C51.2313 30.944 51.5833 31.072 52.01 31.072C52.4367 31.072 52.874 30.944 53.322 30.688L53.674 35.136C53.2047 35.4987 52.586 35.776 51.818 35.968C51.0713 36.16 50.2927 36.256 49.482 36.256ZM47.178 17.568C46.1753 17.568 45.322 17.2587 44.618 16.64C43.9353 16 43.594 15.2213 43.594 14.304C43.594 13.3867 43.9567 12.6187 44.682 12C45.4073 11.3813 46.2393 11.072 47.178 11.072C48.1593 11.072 49.002 11.392 49.706 12.032C50.4313 12.672 50.794 13.4293 50.794 14.304C50.794 15.2427 50.4313 16.0213 49.706 16.64C48.9807 17.2587 48.138 17.568 47.178 17.568ZM61.1695 36.256C59.3562 36.256 57.9482 35.6907 56.9455 34.56C55.9642 33.408 55.4735 31.84 55.4735 29.856V14.912L62.2255 13.92V29.376C62.2255 29.9733 62.3642 30.4107 62.6415 30.688C62.9402 30.944 63.4522 31.072 64.1775 31.072C64.7108 31.072 65.2335 30.944 65.7455 30.688L65.9695 35.168C64.5402 35.8933 62.9402 36.256 61.1695 36.256ZM67.6313 20.192H74.0633V23.456C74.7886 22.1973 75.6099 21.2693 76.5273 20.672C77.4659 20.0533 78.5753 19.744 79.8553 19.744C81.1139 19.744 82.2019 20.064 83.1193 20.704C84.0579 21.3227 84.7619 22.1653 85.2313 23.232C86.5966 20.9067 88.5806 19.744 91.1833 19.744C92.4206 19.744 93.4979 20.0747 94.4153 20.736C95.3539 21.3973 96.0793 22.3573 96.5913 23.616C97.1033 24.8533 97.3593 26.3147 97.3593 28V36H90.6073V28C90.6073 26.912 90.4153 26.0907 90.0313 25.536C89.6686 24.9813 89.1566 24.704 88.4953 24.704C87.7699 24.704 87.1406 25.0133 86.6073 25.632C86.0953 26.2507 85.8393 26.9973 85.8393 27.872V36H79.1513V28C79.1513 26.912 78.9593 26.0907 78.5753 25.536C78.2126 24.9813 77.6899 24.704 77.0073 24.704C76.2819 24.704 75.6633 25.0133 75.1513 25.632C74.6393 26.2507 74.3833 26.9973 74.3833 27.872V36H67.6313V20.192ZM106.011 36.256C103.771 36.256 101.808 35.9253 100.123 35.264L100.859 31.456C102.395 32.0107 103.888 32.288 105.339 32.288C106.406 32.288 106.939 31.9893 106.939 31.392C106.939 31.0933 106.779 30.848 106.459 30.656C106.16 30.464 105.584 30.2933 104.731 30.144C102.96 29.8027 101.68 29.2267 100.891 28.416C100.123 27.6053 99.739 26.4533 99.739 24.96C99.8243 23.2747 100.496 21.984 101.755 21.088C103.014 20.192 104.731 19.744 106.907 19.744C108.016 19.744 108.966 19.8187 109.755 19.968C110.566 20.096 111.302 20.32 111.963 20.64L111.291 24.448C110.672 24.2133 109.99 24.032 109.243 23.904C108.518 23.776 107.91 23.712 107.419 23.712C106.694 23.712 106.192 23.7867 105.915 23.936C105.638 24.0853 105.499 24.288 105.499 24.544C105.499 25.0133 106.032 25.344 107.099 25.536C109.04 25.8773 110.491 26.4747 111.451 27.328C112.411 28.1813 112.891 29.344 112.891 30.816C112.891 32.5013 112.294 33.8347 111.099 34.816C109.926 35.776 108.23 36.256 106.011 36.256Z" fill="white"/>
</svg>
